<?xml version="1.0" encoding="UTF-8" standalone="no"?>
<svg
   xmlns:dc="http://purl.org/dc/elements/1.1/"
   xmlns:cc="http://creativecommons.org/ns#"
   xmlns:rdf="http://www.w3.org/1999/02/22-rdf-syntax-ns#"
   xmlns:svg="http://www.w3.org/2000/svg"
   xmlns="http://www.w3.org/2000/svg"
   xmlns:sodipodi="http://sodipodi.sourceforge.net/DTD/sodipodi-0.dtd"
   xmlns:inkscape="http://www.inkscape.org/namespaces/inkscape"
   version="1.1"
   id="svg929"
   width="878"
   height="1024"
   viewBox="0 0 878 1024"
   sodipodi:docname="tux.svg"
   inkscape:version="1.0.2 (e86c870879, 2021-01-15, custom)">
  <metadata
     id="metadata935">
    <rdf:RDF>
      <cc:Work
         rdf:about="">
        <dc:format>image/svg+xml</dc:format>
        <dc:type
           rdf:resource="http://purl.org/dc/dcmitype/StillImage" />
        <dc:title></dc:title>
      </cc:Work>
    </rdf:RDF>
  </metadata>
  <defs
     id="defs933" />
  <sodipodi:namedview
     pagecolor="#ffffff"
     bordercolor="#666666"
     borderopacity="1"
     objecttolerance="10"
     gridtolerance="10"
     guidetolerance="10"
     inkscape:pageopacity="0"
     inkscape:pageshadow="2"
     inkscape:window-width="2556"
     inkscape:window-height="1397"
     id="namedview931"
     showgrid="false"
     inkscape:zoom="0.984375"
     inkscape:cx="241.4127"
     inkscape:cy="512"
     inkscape:window-x="1920"
     inkscape:window-y="41"
     inkscape:window-maximized="0"
     inkscape:current-layer="g937" />
  <g
     inkscape:groupmode="layer"
     inkscape:label="Image"
     id="g937">
    <path
       style="fill:#000000"
       d="M 283.10031,941.47062 C 273.66998,939.39868 263.16867,935.77895 237.5,925.75249 199.79501,911.02452 184.09235,906.4254 141,897.48882 121.50297,893.44548 94.816171,886.9149 88.139825,884.55329 c -5.35009,-1.89248 -11.847603,-6.56387 -14.297411,-10.27915 -3.343215,-5.07018 -2.522852,-14.97388 2.579036,-31.13499 7.57133,-23.98351 7.853766,-31.27676 2.039598,-52.66792 -6.674215,-24.55538 -4.452846,-40.8159 6.572671,-48.11224 3.312614,-2.19219 5.599521,-2.72547 14.694724,-3.4267 5.924357,-0.45675 14.852377,-0.85337 19.840057,-0.88138 14.65985,-0.0823 24.02565,-4.02566 30.51305,-12.84717 1.71964,-2.33833 5.07574,-9.22544 7.45801,-15.30468 2.38227,-6.07924 5.09969,-12.22573 6.03872,-13.65887 l 1.70732,-2.60571 1.8572,2.29354 c 2.57988,3.18602 2.3781,9.58645 -0.6643,21.07198 -4.82526,18.21613 -10.3329,26.03593 -20.94682,29.7405 -5.72958,1.99979 -22.93787,2.37178 -40.09022,0.86662 -12.078701,-1.05994 -16.206207,0.27 -18.980164,6.11568 -2.450924,5.16495 -1.49129,9.7186 5.888992,27.94445 7.736272,19.10498 9.101832,24.41527 8.957372,34.83275 -0.15277,11.0161 -2.650542,17.949 -11.149638,30.94729 -10.564962,16.15777 -9.846397,19.41562 5.312697,24.08681 7.809941,2.40659 34.444891,9.11611 123.029281,30.99188 62.17358,15.35367 67.67541,16.35934 79.6136,14.55239 9.68651,-1.46614 18.82534,-5.94689 23.32235,-11.4349 8.07622,-9.85596 12.86165,-24.81773 12.83965,-40.14347 -0.018,-12.55639 -1.85714,-19.76972 -8.66866,-34 -6.52074,-13.6228 -11.82973,-22.22823 -36.70763,-59.5 -49.45003,-74.08544 -69.53477,-97.29134 -87.41926,-101.00414 -4.97703,-1.03323 -6.06386,-0.88558 -14.30189,1.94297 -9.89561,3.39768 -12.40153,3.70188 -14.05756,1.70649 -1.84403,-2.22193 -3.42126,-17.4669 -2.86031,-27.6469 0.70434,-12.78223 3.35716,-20.25108 16.59849,-46.73192 14.089,-28.17609 19.8578,-41.37539 31.14724,-71.2665 9.20543,-24.37326 16.08988,-39.50582 22.74713,-50 1.91899,-3.025 9.67365,-13.825 17.23258,-24 14.49962,-19.5178 53.48769,-76.05242 56.54979,-82 2.8811,-5.596 3.39375,-10.67531 2.42228,-24 -2.24816,-30.83587 -4.27687,-89.88304 -4.36339,-127 -0.0943,-40.4462 -0.0908,-40.51661 2.61215,-53.0069 6.92262,-31.98908 17.06505,-50.39577 36.29163,-65.86276 C 365.29286,92.033104 386.38057,84.089128 408,81.845482 c 13.69335,-1.421083 45.86916,-0.47667 56.95826,1.67182 10.76194,2.085102 29.74114,8.301666 38.09048,12.476387 24.71294,12.356631 45.36717,33.638941 54.92308,56.593271 7.14175,17.15525 9.56994,32.1346 13.52143,83.41304 3.96878,51.50276 6.69251,71.97081 11.59276,87.116 2.85128,8.81248 10.07337,23.77195 22.08975,45.75557 18.90653,34.58898 27.00008,47.08656 51.12485,78.94396 19.33975,25.53864 30.33646,42.74439 40.70267,63.68447 13.73695,27.74908 20.11044,46.98295 27.0065,81.5 6.94509,34.76244 9.03665,54.37388 7.11287,66.69368 -2.59723,16.6326 -8.85204,27.10719 -27.08342,45.35511 -23.69776,23.71926 -45.91538,35.9443 -63.09123,34.71538 -16.78494,-1.20096 -32.53342,-15.26631 -41.60011,-37.15406 -1.84773,-4.46056 -4.14439,-8.70804 -5.1037,-9.43884 -1.1489,-0.87524 -3.71044,-1.19449 -7.50531,-0.93539 -4.89372,0.33413 -6.27641,0.89278 -9.18353,3.71048 -5.63324,5.45994 -7.74878,11.80418 -8.59411,25.77263 -1.0654,17.60486 0.35471,36.06174 4.17647,54.28101 3.08453,14.70467 3.24952,16.57755 3.21547,36.5 -0.0281,16.44701 -0.5039,23.99302 -2.19453,34.80485 C 572.93956,855.10107 572,865.77709 572,871.83306 c 0,10.12574 0.18844,11.11656 3.38121,17.77876 6.08587,12.69909 17.82261,22.15613 31.50002,25.3816 7.2762,1.7159 21.01321,0.81592 28.57964,-1.8724 7.43323,-2.641 13.1012,-6.37556 32.03913,-21.11017 31.24301,-24.30857 36.77156,-27.36875 69.5,-38.46993 12.375,-4.19748 27.4784,-10.05159 33.56312,-13.00914 9.32445,-4.53226 12.02869,-6.40956 17.20707,-11.94526 9.80863,-10.48547 10.75068,-18.1729 3.07657,-25.106 -5.02741,-4.54197 -11.36323,-7.40703 -25.46281,-11.51433 -13.3754,-3.89633 -16.87579,-5.64949 -22.16943,-11.10346 C 738.09898,775.59226 733.92405,767.87825 730.84088,758 728.85499,751.63735 728.5,748.37694 728.5,736.5 c 0,-12.31071 0.24744,-14.42232 2.05064,-17.5 2.48872,-4.24772 5.94704,-5.16953 6.76639,-1.80358 0.30841,1.26697 1.0691,6.99123 1.69042,12.72058 0.62132,5.72935 1.82749,12.47236 2.68037,14.98447 4.23288,12.46764 17.62215,26.67288 38.67811,41.03522 C 801.88071,800.61199 806,805.48092 806,816.23575 c 0,3.97736 -0.61168,6.20014 -2.4511,8.9071 -6.07016,8.93305 -34.0209,27.30672 -62.29648,40.95117 -32.26063,15.56744 -44.21489,23.69097 -68.25242,46.38102 -26.22829,24.75801 -31.85309,27.61801 -55.65816,28.3001 -27.14871,0.7779 -43.99864,-3.58984 -54.54854,-14.13974 -2.58233,-2.58232 -6.97951,-8.47703 -9.77152,-13.09935 -6.08134,-10.06795 -9.55271,-13.23421 -15.27653,-13.93381 -8.97003,-1.09636 -92.78369,-1.54447 -124.24525,-0.66427 -27.77017,0.77692 -34.30078,1.2472 -41.20787,2.96744 -16.99348,4.2323 -25.99208,9.12125 -45.48785,24.71363 -7.03035,5.62275 -15.14987,11.34453 -18.04337,12.71507 -6.7473,3.19592 -16.96621,4.04675 -25.6606,2.13651 z m 85.51766,-64.22843 c 2.0688,-7.11643 1.42492,-19.10963 -1.36175,-25.36441 -1.07274,-2.40778 -4.71923,-7.68108 -8.10332,-11.71844 -6.77619,-8.08427 -7.58297,-10.76231 -3.54738,-11.77518 3.38436,-0.84942 7.25992,1.0638 15.39448,7.59967 7.53067,6.05066 11.38006,8.16439 19,10.43303 15.47944,4.6086 63.56626,2.30873 85.94581,-4.11056 21.1376,-6.06306 33.7369,-15.17742 51.67195,-37.37961 17.33082,-21.4542 25.69743,-8.63622 16.82743,25.78029 C 538.83679,852.46813 537,862.57824 537,871.687 c 0,8.02476 0.15263,8.61947 2.92308,11.38992 3.30655,3.30655 7.64008,3.90603 8.47993,1.17308 1.6698,-5.43363 7.79668,-51.14072 8.67952,-64.75 0.57086,-8.8 1.3676,-39.175 1.77054,-67.5 0.72707,-51.11096 0.75035,-51.53999 3.08162,-56.7935 4.25311,-9.58433 11.28843,-13.75472 25.16664,-14.91821 6.46369,-0.5419 6.97154,-0.75796 7.48575,-3.18481 2.34029,-11.04524 8.24198,-18.30226 18.0687,-22.21819 5.25059,-2.09236 7.46943,-2.33178 21.84422,-2.3571 l 16,-0.0282 10.35546,4.25 c 11.67117,4.78998 14.80242,5.34778 13.1987,2.35121 -1.65726,-3.09663 -13.04599,-11.62373 -20.30416,-15.20238 -7.95393,-3.92169 -7.963,-3.95848 -4.2871,-17.39883 4.49347,-16.42966 5.86945,-26.88407 5.85695,-44.5 -0.0168,-23.74974 -2.86471,-36.73272 -13.05152,-59.5 -13.57696,-30.34419 -34.33869,-60.39678 -47.95629,-69.4167 -9.39033,-6.2199 -9.07515,-4.18931 1.88844,12.1667 19.44711,29.01212 34.53478,56.7693 40.35927,74.25 3.55731,10.67635 7.05058,27.5235 8.50137,41 3.20673,29.78737 -4.64158,56.95726 -18.55566,64.23746 -1.80304,0.94339 -6.66525,1.75882 -12.21997,2.04936 -10.71804,0.56063 -13.02644,-0.39856 -16.27263,-6.76161 -1.83791,-3.6026 -2.01372,-5.88292 -2.02275,-26.23537 -0.0247,-55.66302 -3.37543,-71.22284 -23.53507,-109.28984 -16.44833,-31.059 -20.06836,-39.12336 -23.95458,-53.3637 -8.23377,-30.17113 -14.83943,-45.18048 -28.35623,-64.43089 -11.87179,-16.90761 -14.49281,-22.82448 -14.9624,-33.77704 -0.30823,-7.18906 0.13135,-10.42833 2.72533,-20.08283 1.90798,-7.1013 3.09284,-13.9189 3.09284,-17.79602 0,-5.93596 -0.20815,-6.49083 -3.75,-9.99633 -2.63615,-2.6091 -6.12622,-4.53571 -11.75,-6.48632 -33.38579,-11.57987 -41.48058,-15.61441 -46.95339,-23.40214 -2.69441,-3.8341 -3.08692,-5.297 -3.39531,-12.65458 -0.57677,-13.7608 3.44331,-23.73426 11.37827,-28.22847 5.77085,-3.26851 16.71983,-3.20247 23.31713,0.14064 13.25696,6.71781 16.02754,17.07182 10.00061,37.37358 -2.4937,8.40008 -2.1556,9.70455 3.22758,12.45255 6.87069,3.50734 13.32323,1.74992 16.5606,-4.51045 2.19071,-4.23637 3.01032,-22.20845 1.42736,-31.29849 -1.7303,-9.93614 -7.52311,-27.19687 -10.93074,-32.57014 -5.60394,-8.8365 -13.97499,-12.98035 -30.35401,-15.02591 -13.07905,-1.63343 -18.88182,0.10026 -26.78373,8.00217 -11.3244,11.3244 -16.80662,28.47779 -15.5924,48.78727 0.40665,6.80185 0.2949,11.43641 -0.2844,11.79444 -0.52486,0.32438 -3.57852,-0.10296 -6.78593,-0.94964 -3.2074,-0.84667 -10.93223,-1.8214 -17.16628,-2.16606 -13.37555,-0.73949 -13.1443,-0.50077 -13.20025,-13.62674 -0.0688,-16.14783 -4.19124,-31.08426 -10.6673,-38.65008 -4.87795,-5.69879 -10.11078,-7.98763 -18.29781,-8.00347 -5.41435,-0.0105 -7.37829,0.49111 -11.75848,3.0031 -6.55936,3.76173 -11.45078,10.33949 -14.33375,19.27538 -1.98518,6.15314 -2.1416,8.17823 -1.62206,21 0.82212,20.289 5.10563,35.27958 11.22715,39.29055 2.30207,1.50838 2.67581,1.50602 5.02264,-0.0317 1.39452,-0.91373 3.53202,-3.72547 4.75,-6.24832 2.14492,-4.44286 2.15572,-4.62208 0.34392,-5.70368 -7.06322,-4.21658 -8.23847,-5.46162 -10.48829,-11.11103 -3.24672,-8.1527 -4.01932,-19.85277 -1.64178,-24.86305 3.42709,-7.22206 14.82479,-11.48077 21.82986,-8.15664 7.02305,3.33265 13.89779,16.90979 13.93939,27.5293 0.031,7.91912 -1.67005,11.57457 -7.4885,16.09215 -2.35405,1.82774 -10.58986,8.56893 -18.3018,14.98041 -16.2082,13.47504 -19.81103,18.44738 -19.28362,26.61372 0.27912,4.32194 0.6817,4.98807 4.69157,7.76302 4.45356,3.082 10.89817,9.23245 19.21067,18.33384 6.06077,6.63595 11.19046,8.203 26.83458,8.19756 19.22038,-0.007 36.12957,-3.64635 64.89475,-13.96847 23.80941,-8.54379 29.9821,-11.46969 34.79564,-16.49338 2.38945,-2.49377 5.1041,-4.53413 6.03254,-4.53413 2.5175,0 5.34557,2.99177 5.34557,5.65499 0,4.52952 -4.78996,7.6077 -21.5,13.81661 -5.5,2.04362 -14.25447,5.3018 -19.45438,7.2404 -5.19991,1.9386 -15.33983,6.13194 -22.53315,9.31855 -7.19332,3.18661 -15.76385,6.52138 -19.04562,7.4106 -7.49809,2.03168 -28.45772,3.00789 -38.89051,1.81135 C 364.79594,361.24548 361,361.60995 361,363.46004 c 0,1.41857 6.81444,7.29225 15.61064,13.45554 8.19378,5.74119 17.1583,7.23347 29.20091,4.86095 10.79939,-2.1276 32.34914,-10.80116 56.7941,-22.85906 C 473.66376,353.46286 483.35113,349 484.13315,349 c 2.46048,0 5.86685,3.02589 5.86685,5.21154 0,3.53214 -7.07989,9.19276 -15.98965,12.78429 -13.50389,5.44342 -38.50584,21.81015 -55.26542,36.17773 -10.0306,8.599 -13.53157,10.11626 -24.53388,10.63253 -12.97016,0.60861 -16.13368,-0.75653 -25.75655,-11.11462 -4.16674,-4.4851 -10.70152,-12.74656 -14.52172,-18.3588 -7.96575,-11.70247 -13.28355,-17.7106 -15.14221,-17.1079 -0.70981,0.23017 -1.85696,2.41126 -2.54922,4.84686 -3.6407,12.80928 -6.29805,19.3474 -16.2285,39.92837 -5.97102,12.375 -11.61025,24.975 -12.53163,28 -1.18491,3.89023 -1.87875,11.35371 -2.37058,25.5 -0.76565,22.022 -0.3568,20.50139 -8.85385,32.92954 -13.03888,19.07124 -31.16882,61.91166 -35.69187,84.3387 -2.86435,14.20259 -4.6555,33.53757 -5.06311,54.65501 -0.36932,19.13362 -0.57133,21.09072 -2.36186,22.88124 -3.09861,3.09862 -6.77443,1.44405 -14.70739,-6.62014 -13.60204,-13.82706 -15.95021,-20.91855 -15.12667,-45.68268 0.37871,-11.3877 1.17128,-19.12007 2.55746,-24.95069 1.10477,-4.64697 1.7678,-8.83878 1.47339,-9.31515 -1.12796,-1.82507 -4.41933,2.8553 -7.34744,10.44814 -2.50617,6.4987 -3.23272,10.32872 -4.07242,21.4676 -1.49469,19.82768 0.76906,32.06313 8.85271,47.84843 6.69221,13.06817 45.66578,49.61388 93.01736,87.22281 10.84218,8.61139 22.13107,18.12359 25.08642,21.13822 10.26774,10.47367 13.75056,23.08721 9.05376,32.7895 -2.54868,5.26488 -10.57509,12.68772 -18.76017,17.34947 -3.37991,1.925 -6.14359,3.725 -6.14151,4 0.002,0.275 4.01639,6.10497 8.92069,12.95548 11.25981,15.72816 17.35913,25.97024 20.65741,34.68823 2.2893,6.05107 2.53055,7.85455 2.05422,15.35629 -0.29685,4.675 -0.82109,9.85 -1.16498,11.5 -0.59662,2.86256 -0.39367,2.75684 4.42977,-2.30757 3.73936,-3.92617 5.48198,-6.7762 6.69541,-10.95024 z m 5.74966,-593.91357 c -0.53627,-2.13666 -0.12859,-3.13748 2.03671,-5 2.19119,-1.88478 3.86352,-2.32862 8.77387,-2.32862 5.27922,0 5.90509,0.1947 4.82179,1.5 -0.68469,0.825 -2.10497,1.5 -3.15617,1.5 -1.12431,0 -2.76156,1.44112 -3.97633,3.5 -1.60057,2.71276 -2.71332,3.5 -4.94722,3.5 -2.28964,0 -3.02002,-0.5492 -3.55265,-2.67138 z m 47.00491,-2.73561 c -2.82011,-1.3131 -5.4003,-2.82892 -5.73377,-3.36848 -1.25233,-2.02631 10.97899,-3.03465 14.42697,-1.18935 2.17996,1.16668 2.53612,3.96296 0.73426,5.76482 -1.73046,1.73046 -3.6453,1.48531 -9.42746,-1.20699 z M 253.80506,508.63333 c 3.92868,-4.05166 7.60473,-8.58096 8.169,-10.0651 2.16326,-5.6898 0.82878,-12.60036 -2.42406,-12.55292 -2.33315,0.034 -3.77121,1.99178 -6.63853,9.0376 -1.65248,4.06062 -4.83391,9.75418 -7.06984,12.65236 -4.15452,5.38504 -4.52005,8.29473 -1.04201,8.29473 1.02431,0 5.07676,-3.315 9.00544,-7.36667 z m 313.0746,-137.51299 c 1.03382,-1.03382 2.64023,-4.16951 3.56981,-6.96821 2.47788,-7.4602 1.13349,-9.62348 -9.13073,-14.69237 -4.49969,-2.22214 -10.95567,-6.45335 -14.34661,-9.40271 -7.04355,-6.12629 -8.40344,-5.74884 -7.57769,2.10326 1.09092,10.37373 9.32287,21.82032 20.66487,28.73468 4.20661,2.56446 4.47246,2.57324 6.82035,0.22535 z M 370.81358,260.68774 c 0.6828,-8.26469 -6.21305,-21.89963 -10.28538,-20.33693 -2.86004,1.0975 -2.77818,3.58388 0.27644,8.39651 1.65911,2.61398 3.55818,6.77768 4.22017,9.25268 0.66198,2.475 1.37585,5.09576 1.58637,5.82391 0.21053,0.72815 1.17163,1.1744 2.1358,0.99168 1.23206,-0.23349 1.84621,-1.46021 2.0666,-4.12785 z m 113.60463,0.70527 C 485.5732,260.9498 486,259.41607 486,255.70874 c 0,-9.88293 -6.26941,-17.42121 -15.33902,-18.44348 -3.52166,-0.39695 -4.48981,-0.15371 -5.03413,1.26477 -0.79797,2.07947 -1.14344,1.71154 4.08001,4.34537 4.62678,2.33297 8.37962,7.77904 10.24996,14.8746 1.13738,4.31494 1.64027,4.72558 4.46139,3.64301 z M 490.55209,151.5 c 6.06583,-3.78067 8.02436,-4.5 12.25214,-4.5 6.57442,0 8.19577,-0.70939 8.19577,-3.58588 0,-3.0677 -9.49593,-12.5076 -15.51094,-15.41941 -7.58507,-3.67187 -9.96168,-1.55723 -12.12223,10.78602 -0.70092,4.0044 -2.1952,8.57387 -3.32062,10.15437 -2.08519,2.92838 -2.57547,5.2023 -1.37954,6.39823 1.54444,1.54445 5.09382,0.39969 11.88542,-3.83333 z"
       id="path1502" />
  </g>
</svg>
