<?xml version="1.0" encoding="UTF-8" standalone="no"?>
<svg
   xmlns:dc="http://purl.org/dc/elements/1.1/"
   xmlns:cc="http://creativecommons.org/ns#"
   xmlns:rdf="http://www.w3.org/1999/02/22-rdf-syntax-ns#"
   xmlns:svg="http://www.w3.org/2000/svg"
   xmlns="http://www.w3.org/2000/svg"
   xmlns:sodipodi="http://sodipodi.sourceforge.net/DTD/sodipodi-0.dtd"
   xmlns:inkscape="http://www.inkscape.org/namespaces/inkscape"
   version="1.1"
   id="svg91"
   width="164"
   height="192"
   viewBox="0 0 164 192"
   sodipodi:docname="default.svg"
   inkscape:version="1.0.2 (e86c870879, 2021-01-15, custom)">
  <metadata
     id="metadata97">
    <rdf:RDF>
      <cc:Work
         rdf:about="">
        <dc:format>image/svg+xml</dc:format>
        <dc:type
           rdf:resource="http://purl.org/dc/dcmitype/StillImage" />
        <dc:title></dc:title>
      </cc:Work>
    </rdf:RDF>
  </metadata>
  <defs
     id="defs95" />
  <sodipodi:namedview
     pagecolor="#ffffff"
     bordercolor="#666666"
     borderopacity="1"
     objecttolerance="10"
     gridtolerance="10"
     guidetolerance="10"
     inkscape:pageopacity="0"
     inkscape:pageshadow="2"
     inkscape:window-width="1916"
     inkscape:window-height="1044"
     id="namedview93"
     showgrid="false"
     inkscape:zoom="3.1193721"
     inkscape:cx="39.670127"
     inkscape:cy="86.779023"
     inkscape:window-x="0"
     inkscape:window-y="34"
     inkscape:window-maximized="0"
     inkscape:current-layer="g99" />
  <g
     inkscape:groupmode="layer"
     inkscape:label="Image"
     id="g99">
    <path
       style="fill:#000000"
       d="m 2.5354197,186.46713 c -0.9728545,-1.38894 -1.55670403,-4.38938 -1.55670403,-8 0,-5.11082 0.23078063,-5.77749 2.00000003,-5.77749 1.7484277,0 2,0.66667 2,5.3 0,5.49943 1.2519759,7.92427 3.6218549,7.01487 0.955126,-0.36652 1.378145,-2.3377 1.378145,-6.42186 0,-5.22634 0.2262574,-5.89301 2.0000004,-5.89301 1.789861,0 2,0.66667 2,6.34501 0,4.87696 -0.42312,6.72793 -1.828741,8 -2.6816464,2.42686 -7.7257574,2.12912 -9.6145553,-0.56752 z m 17.4432963,-5.77749 c 0,-7.37755 0.158235,-8 2.033725,-8 1.289412,0 2.84485,1.37245 4.25,3.75 l 2.216275,3.75 0.310365,-3.75 c 0.243141,-2.93776 0.730487,-3.75 2.25,-3.75 1.757877,0 1.939635,0.74966 1.939635,8 0,6.95512 -0.228567,7.99906 -1.75,7.9928 -0.9625,-0.004 -2.980372,-1.91646 -4.48416,-4.25 l -2.734161,-4.2428 -0.01584,4.25 c -0.01334,3.57805 -0.33205,4.25 -2.01584,4.25 -1.833333,0 -2,-0.66667 -2,-8 z m 20,0 c 0,-6.44444 0.291667,-8 1.5,-8 1.208333,0 1.5,1.55556 1.5,8 0,6.44444 -0.291667,8 -1.5,8 -1.208333,0 -1.5,-1.55556 -1.5,-8 z m 13.57313,6.82014 c -0.22986,-0.72608 -1.162769,-3.79514 -2.07313,-6.82014 -0.910361,-3.025 -1.831159,-6.0625 -2.046216,-6.75 -0.237568,-0.75946 0.543255,-1.25 1.989703,-1.25 1.997684,0 2.489304,0.64272 3.055628,3.99476 0.920594,5.44895 2.183543,5.84305 3.011931,0.93986 0.645062,-3.81809 2.236165,-5.57566 4.32631,-4.77895 0.496833,0.18938 -0.09624,3.71933 -1.31795,7.84433 -1.792118,6.05095 -2.63736,7.56185 -4.374816,7.82014 -1.184442,0.17607 -2.341599,-0.27393 -2.57146,-1 z m 15.42687,-6.82014 v -8 h 5.5 c 4.119724,0 5.5,0.36129 5.5,1.43963 0,0.93519 -1.286913,1.54839 -3.6727,1.75 -4.25181,0.35931 -5.91817,2.81037 -1.910633,2.81037 3.222131,0 3.508207,2.72955 0.333333,3.18045 -3.836028,0.5448 -2.704972,3.28189 1.5,3.62992 2.453058,0.20302 3.75,0.80826 3.75,1.75 0,1.07834 -1.380276,1.43963 -5.5,1.43963 h -5.5 z m 17,0 v -8 h 4.8 c 2.64,0 5.340001,0.54 6.000001,1.2 1.49927,1.49927 1.56427,6.03573 0.10736,7.49264 -0.79019,0.79019 -0.79019,1.65778 0,3.13426 1.56807,2.92997 1.35295,4.1731 -0.72215,4.1731 -1.089645,0 -2.580714,-1.4984 -3.731647,-3.75 l -1.916861,-3.75 -0.328717,3.75 c -0.256964,2.93145 -0.752101,3.75 -2.268351,3.75 -1.757877,0 -1.939635,-0.74966 -1.939635,-8 z m 8,-3.5 c 0,-0.83333 -0.888889,-1.5 -2,-1.5 -1.111111,0 -2,0.66667 -2,1.5 0,0.83333 0.888889,1.5 2,1.5 1.111111,0 2,-0.66667 2,-1.5 z m 11.750004,10.4199 c -2.23111,-1.2995 -2.31224,-4.9199 -0.11024,-4.9199 0.90186,0 2.1836,0.74375 2.84829,1.65278 0.6647,0.90902 1.72681,1.33246 2.36025,0.94098 1.94097,-1.19959 1.30533,-2.13643 -2.34521,-3.45648 -3.88173,-1.40366 -5.5832,-5.1309 -3.49231,-7.65027 1.48033,-1.78368 8.0985,-1.97773 9.78922,-0.28701 1.84019,1.84019 1.4276,3.8 -0.8,3.8 -1.1,0 -2,-0.45 -2,-1 0,-0.55 -0.9,-1 -2,-1 -3.31484,0 -2.25669,1.91349 2,3.61668 3.27942,1.31216 4,2.08532 4,4.2919 0,1.48028 -0.54,3.23142 -1.2,3.89142 -1.45401,1.45401 -6.64147,1.52274 -9.05,0.1199 z m 16.25,-6.9199 c 0,-7.33333 0.16667,-8 2,-8 1.83333,0 2,0.66667 2,8 0,7.33333 -0.16667,8 -2,8 -1.83333,0 -2,-0.66667 -2,-8 z m 14,1.5 c 0,-5.83333 -0.20513,-6.5 -2,-6.5 -1.11111,0 -2,-0.66667 -2,-1.5 0,-1.17949 1.38889,-1.5 6.5,-1.5 5.11111,0 6.5,0.32051 6.5,1.5 0,0.93333 -0.94444,1.5 -2.5,1.5 -2.41026,0 -2.5,0.23333 -2.5,6.5 0,5.83333 -0.20513,6.5 -2,6.5 -1.79487,0 -2,-0.66667 -2,-6.5 z m 19,3.95034 c 0,-1.40231 -0.68498,-3.87426 -1.52217,-5.49321 -3.30151,-6.38441 -3.59502,-7.95713 -1.48502,-7.95713 1.10136,0 2.57233,1.19146 3.39513,2.75 1.45181,2.75 1.45181,2.75 2.50718,0 0.67047,-1.74705 1.79382,-2.75 3.08013,-2.75 2.49586,0 2.49662,0.15473 0.0248,5 -1.1,2.15618 -2,5.51325 -2,7.46016 0,2.87317 -0.37667,3.53984 -2,3.53984 -1.47705,0 -2,-0.66667 -2,-2.54966 z M 19.225403,158.43964 c 0.253365,-0.6875 1.471695,-4.31303 2.707399,-8.05673 2.061599,-6.24585 2.457951,-6.78146 4.809988,-6.5 2.202294,0.26354 2.892257,1.2847 4.899589,7.25152 1.284986,3.81963 2.336337,7.30713 2.336337,7.75 0,1.15767 -3.764851,0.99471 -4.5,-0.19479 -0.339919,-0.55 -1.716476,-1 -3.059017,-1 -1.342541,0 -2.440983,0.45 -2.440983,1 0,0.55 -1.173145,1 -2.606989,1 -1.664612,0 -2.440467,-0.45185 -2.146324,-1.25 z m 8.738,-5 c -0.01986,-1.62147 -1.948947,-4.64021 -1.969374,-3.08179 -0.0084,0.64252 -0.288458,1.88002 -0.622302,2.75 -0.398311,1.03799 -0.05452,1.58179 1,1.58179 0.883844,0 1.600098,-0.5625 1.591676,-1.25 z m 11.348886,5.5 c 0.248385,-0.4125 1.418998,-4.0125 2.601363,-8 2.005876,-6.76477 2.337388,-7.25 4.953273,-7.25 2.625547,0 2.940266,0.47063 4.957655,7.41368 2.613784,8.99561 2.606436,8.58632 0.154136,8.58632 -1.1,0 -2,-0.45 -2,-1 0,-0.55 -1.35,-1 -3,-1 -1.65,0 -3,0.45 -3,1 0,0.55 -1.151558,1 -2.559017,1 -1.407459,0 -2.355794,-0.3375 -2.10741,-0.75 z m 8.666427,-6.19098 c 0,-2.66924 -1.658159,-3.47422 -2.277548,-1.10568 -0.519474,1.98648 -0.01691,3.04666 1.444215,3.04666 0.458333,0 0.833333,-0.87344 0.833333,-1.94098 z m 12,-1.05902 c 0,-7.33333 0.166667,-8 2,-8 1.794872,0 2,0.66667 2,6.5 0,6.5 0,6.5 4,6.5 2.888889,0 4,0.41667 4,1.5 0,1.16667 -1.333333,1.5 -6,1.5 h -6 z m 18,-0.0523 v -8.05226 l 5.25,0.30226 c 5.25,0.3023 5.25,0.3023 5.441456,4.3023 0.1053,2.2 0.477742,4.94542 0.827647,6.10092 0.972861,3.21273 -1.898447,5.39908 -7.090532,5.39908 h -4.428571 v -8.05226 z m 7.709398,3.42547 c 0.494116,-1.4842 -2.774925,-2.70768 -3.989483,-1.49312 -0.520108,0.5201 -0.627903,1.45977 -0.239546,2.08815 0.852206,1.37889 3.705527,0.97743 4.229029,-0.59503 z m -0.459398,-6.87317 c -0.369046,-1.47618 -3.5115,-1.2155 -4.028049,0.33415 -0.304888,0.91466 0.297749,1.22908 1.916667,1 1.29876,-0.18378 2.248882,-0.78415 2.111382,-1.33415 z m 11.950001,10.3 c -0.66,-0.66 -1.2,-3.72 -1.2,-6.8 0,-6.54473 1.09145,-8 6.000003,-8 4.90855,0 6,1.45527 6,8 0,6.54473 -1.09145,8 -6,8 -1.980003,0 -4.140003,-0.54 -4.800003,-1.2 z m 6.300003,-6.88333 c 0,-3.25926 -0.39308,-4.41667 -1.5,-4.41667 -1.58684,0 -2.627653,5.42198 -1.56993,8.17835 1.14915,2.99465 3.06993,0.64105 3.06993,-3.76168 z m 10.5,0.0334 v -8.04991 l 5.73024,0.29991 c 5.21773,0.27308 5.81539,0.54315 6.68239,3.01962 0.7458,2.13029 0.57178,3.14002 -0.80294,4.65907 -1.62818,1.79912 -1.63951,2.16287 -0.15671,5.03028 1.52915,2.95706 1.51176,3.09093 -0.40162,3.09093 -1.21081,0 -2.61216,-1.18379 -3.55136,-3 -0.85325,-1.65 -1.9898,-3 -2.52568,-3 -0.53588,0 -0.97432,1.35 -0.97432,3 0,2.33333 -0.44444,3 -2,3 -1.83437,0 -2,-0.66667 -2,-8.0499 z m 7.87812,-1.85361 c 1.59131,-1.00789 0.66178,-3.09646 -1.37812,-3.09646 -1.71612,0 -2.82558,1.66418 -2,3 0.75248,1.21754 1.57127,1.24093 3.37812,0.0965 z m 12.32188,8.70354 c -0.66,-0.66 -1.2,-3.72 -1.2,-6.8 0,-3.08 0.54,-6.14 1.2,-6.8 2.67244,-2.67244 10.8,-0.51154 10.8,2.87143 0,1.31949 -2.67101,1.14928 -5.04408,-0.32143 -1.66245,-1.0303 -2.18465,-0.98636 -2.97112,0.25 -2.27646,3.57869 0.0722,10.31884 2.9714,8.52707 1.54791,-0.95666 1.26442,-2.52707 -0.4562,-2.52707 -0.825,0 -1.5,-0.675 -1.5,-1.5 0,-1.04762 1.05556,-1.5 3.5,-1.5 3.20325,0 3.5,0.2483 3.5,2.92857 0,1.61072 -0.70714,3.63572 -1.57143,4.5 -1.85518,1.85518 -7.51695,2.08305 -9.22857,0.37143 z M 74.478716,105.219 c -3.3,-0.7214 -7.65574,-2.10383 -9.679421,-3.07206 -3.366633,-1.61076 -3.822311,-2.343479 -5.360268,-8.619249 -1.216659,-4.96469 -1.575417,-9.82473 -1.299081,-17.598448 0.338783,-9.530435 0.73794,-11.496576 3.545248,-17.462929 C 65.880426,49.550213 71.80245,43.436928 85.840133,33.531253 100.65337,23.078315 108.20723,15.57208 112.06352,7.4732065 c 2.8648,-6.01655 2.96734,-6.113588 2.41325,-2.283564 -0.92609,6.4012415 -6.01732,15.4205345 -15.596153,27.6290875 -4.906883,6.254002 -10.798686,15.099449 -13.092891,19.656548 -3.672797,7.295469 -4.22388,9.287769 -4.611422,16.671398 -0.530261,10.102795 1.823503,19.120945 7.906561,30.292965 l 3.947555,7.249999 -6.275852,-0.0795 C 83.30285,106.56644 77.778716,105.9404 74.478716,105.219 Z M 105.57065,95.684471 C 96.131327,85.593071 92.580088,73.243845 95.329842,60.072632 c 1.597095,-7.650024 4.545045,-14.099227 12.474228,-27.289748 4.16481,-6.928348 6.8597,-13.656562 10.80898,-26.9863705 0.22701,-0.76622 0.65691,-1.148962 0.95534,-0.850538 1.34654,1.346539 -1.89048,20.7111415 -5.14492,30.7781385 -4.61387,14.272117 -5.17375,19.254648 -2.92453,26.026393 2.22391,6.695566 9.37493,14.08615 17.01305,17.582994 l 5.50485,2.52021 -3.10739,3.92339 c -4.73277,5.97561 -16.42955,14.898339 -19.54389,14.908799 -0.61224,0.002 -3.21994,-2.248579 -5.79491,-5.001429 z M 41.356964,83.189641 C 33.955867,72.725044 30.536185,60.53374 31.263751,47.206937 31.754155,38.224232 31.754155,38.224232 37.322506,33.041226 45.937457,25.022454 52.831735,22.154092 71.960538,18.630088 92.107544,14.918506 98.226597,12.387159 105.0202,4.9538745 c 5.33506,-5.83740596 6.17905,-5.57699096 2.88046,0.888774 -2.8461,5.5788235 -9.897863,12.1953075 -17.269495,16.2035215 -3.383847,1.839916 -10.591229,5.761587 -16.016404,8.714825 -20.030344,10.903678 -28.078313,23.585493 -30.415859,47.928648 -0.720186,7.499998 -0.720186,7.499998 -2.841938,4.499998 z"
       id="path107" />
  </g>
</svg>
