<?xml version="1.0" encoding="UTF-8" standalone="no"?>
<svg
   xmlns:dc="http://purl.org/dc/elements/1.1/"
   xmlns:cc="http://creativecommons.org/ns#"
   xmlns:rdf="http://www.w3.org/1999/02/22-rdf-syntax-ns#"
   xmlns:svg="http://www.w3.org/2000/svg"
   xmlns="http://www.w3.org/2000/svg"
   xmlns:sodipodi="http://sodipodi.sourceforge.net/DTD/sodipodi-0.dtd"
   xmlns:inkscape="http://www.inkscape.org/namespaces/inkscape"
   version="1.1"
   id="svg126"
   width="137.33333"
   height="144"
   viewBox="0 0 137.33333 144"
   sodipodi:docname="default.svg"
   inkscape:version="1.0.2 (e86c870879, 2021-01-15, custom)">
  <metadata
     id="metadata132">
    <rdf:RDF>
      <cc:Work
         rdf:about="">
        <dc:format>image/svg+xml</dc:format>
        <dc:type
           rdf:resource="http://purl.org/dc/dcmitype/StillImage" />
        <dc:title></dc:title>
      </cc:Work>
    </rdf:RDF>
  </metadata>
  <defs
     id="defs130" />
  <sodipodi:namedview
     pagecolor="#ffffff"
     bordercolor="#666666"
     borderopacity="1"
     objecttolerance="10"
     gridtolerance="10"
     guidetolerance="10"
     inkscape:pageopacity="0"
     inkscape:pageshadow="2"
     inkscape:window-width="1916"
     inkscape:window-height="1044"
     id="namedview128"
     showgrid="false"
     inkscape:zoom="4.4243278"
     inkscape:cx="70.496681"
     inkscape:cy="68.458267"
     inkscape:window-x="0"
     inkscape:window-y="34"
     inkscape:window-maximized="0"
     inkscape:current-layer="g134" />
  <g
     inkscape:groupmode="layer"
     inkscape:label="Image"
     id="g134">
    <path
       style="fill:#000000;stroke-width:1.33333"
       d="m 58.055983,141.52902 c -3.878204,-0.93899 -9.405248,-2.76874 -12.28232,-4.06611 -5.008476,-2.25851 -5.324633,-2.77955 -7.4308,-12.24637 -1.528011,-6.86811 -2.041851,-14.04048 -1.682659,-23.48717 0.902224,-23.728368 8.580595,-35.428808 36.231164,-55.209697 21.02565,-15.041502 31.439192,-25.408299 35.549542,-35.389976 3.71948,-9.0324652 5.55923,-9.9980232 3.81075,-2.0000002 -2.07607,9.4965122 -7.10146,18.1852322 -21.547752,37.2552682 -14.95974,19.747807 -20.44625,30.157507 -22.614146,42.906347 -1.907964,11.220248 1.111851,25.455788 8.613816,40.605898 3.14991,6.36121 5.92934,12.01582 6.17651,12.56582 0.72065,1.60359 -17.114842,0.93252 -24.824105,-0.93401 z M 100.72775,129.64196 C 88.133098,116.32498 83.096638,100.88887 85.808168,83.915372 c 1.75747,-11.0013 4.08509,-16.42521 15.440872,-35.980771 8.42951,-14.5163 15.08189,-30.203215 15.18385,-35.804904 0.0267,-1.466667 0.6864,-3.5666672 1.46601,-4.6666672 1.02452,-1.445572 1.23333,1.511377 0.75325,10.6666672 -0.51814,9.881116 -1.8606,16.41936 -6.10454,29.731198 -8.67975,27.225447 -7.2959,38.224927 6.35297,50.496427 3.77486,3.393928 9.56337,7.281128 12.86336,8.638238 3.3,1.35711 6.00224,2.83303 6.00499,3.27983 0.0232,3.76402 -17.34454,19.7029 -26.79328,24.58904 -3.44655,1.78228 -3.78737,1.60859 -10.2479,-5.22247 z M 14.026492,111.81772 C 4.5664599,98.532332 -0.46211715,79.643012 0.84836185,62.315473 1.5458499,53.093066 1.9407269,52.070887 6.6851949,47.206227 17.558993,36.056966 30.067866,30.168777 49.93492,26.847674 c 31.442818,-5.25618 40.068878,-8.727303 50.34769,-20.2598732 7.61907,-8.5484 8.8062,-7.28994201 2.87625,3.049082 C 97.384358,19.70489 87.810488,27.258689 66.925178,38.225306 45.17019,49.648581 34.952318,58.114291 28.651525,69.935792 c -4.899972,9.19329 -9.50072,25.77689 -9.637976,34.740518 -0.05155,3.36603 -0.542825,7.26536 -1.091737,8.66517 -0.910278,2.32135 -1.252759,2.18738 -3.89532,-1.52376 z"
       id="path138" />
  </g>
</svg>
